<svg class="main-svg" xmlns="http://www.w3.org/2000/svg" xmlns:xlink="http://www.w3.org/1999/xlink" width="700" height="500" style="" viewBox="0 0 700 500"><rect x="0" y="0" width="700" height="500" style="fill: rgb(0, 0, 0); fill-opacity: 0;"/><defs id="defs-193bcf"><g class="clips"><clipPath id="clip193bcfxyplot" class="plotclip"><rect width="540" height="298"/></clipPath><clipPath class="axesclip" id="clip193bcfx"><rect x="80" y="0" width="540" height="500"/></clipPath><clipPath class="axesclip" id="clip193bcfy"><rect x="0" y="100" width="700" height="298"/></clipPath><clipPath class="axesclip" id="clip193bcfxy"><rect x="80" y="100" width="540" height="298"/></clipPath></g><g class="gradients"/><g class="patterns"/></defs><g class="bglayer"><rect class="bg" x="80" y="100" width="540" height="298" style="fill: rgb(0, 0, 0); fill-opacity: 0; stroke-width: 0;"/></g><g class="layer-below"><g class="imagelayer"/><g class="shapelayer"/></g><g class="cartesianlayer"><g class="subplot xy"><g class="layer-subplot"><g class="shapelayer"/><g class="imagelayer"/></g><g class="minor-gridlayer"><g class="x"/><g class="y"/></g><g class="gridlayer"><g class="x"/><g class="y"><path class="ygrid crisp" transform="translate(0,343.13)" d="M80,0h540" style="stroke: rgb(128, 128, 128); stroke-opacity: 1; stroke-width: 1px;"/><path class="ygrid crisp" transform="translate(0,278.65999999999997)" d="M80,0h540" style="stroke: rgb(128, 128, 128); stroke-opacity: 1; stroke-width: 1px;"/><path class="ygrid crisp" transform="translate(0,214.19)" d="M80,0h540" style="stroke: rgb(128, 128, 128); stroke-opacity: 1; stroke-width: 1px;"/><path class="ygrid crisp" transform="translate(0,149.71)" d="M80,0h540" style="stroke: rgb(128, 128, 128); stroke-opacity: 1; stroke-width: 1px;"/></g></g><g class="zerolinelayer"/><path class="xlines-below"/><path class="ylines-below"/><g class="overlines-below"/><g class="xaxislayer-below"/><g class="yaxislayer-below"/><g class="overaxes-below"/><g class="plot" transform="translate(80,100)" clip-path="url(#clip193bcfxyplot)"><g class="boxlayer mlayer"><g class="trace boxes" style="opacity: 0.6;"><path class="box" d="M27.7,170.28H49.5M27.7,192.84H49.5V149H27.7ZM38.6,192.84V226.37M38.6,149V121.28M33.15,226.37H44.05M33.15,121.28H44.05" style="vector-effect: none; stroke-width: 2px; stroke: rgb(158, 202, 225); stroke-opacity: 1; fill: rgb(158, 202, 225); fill-opacity: 0.5;"/><path class="box" d="M161.2,190.91H183M161.2,208.15H183V143.04H161.2ZM172.1,208.15V242.48M172.1,143.04V51.65M166.65,242.48H177.55M166.65,51.65H177.55" style="vector-effect: none; stroke-width: 2px; stroke: rgb(158, 202, 225); stroke-opacity: 1; fill: rgb(158, 202, 225); fill-opacity: 0.5;"/><path class="box" d="M294.7,196.06H316.5M294.7,208.15H316.5V182.85H294.7ZM305.6,208.15V239.26M305.6,182.85V158.67M300.15,239.26H311.05M300.15,158.67H311.05" style="vector-effect: none; stroke-width: 2px; stroke: rgb(158, 202, 225); stroke-opacity: 1; fill: rgb(158, 202, 225); fill-opacity: 0.5;"/><path class="box" d="M428.2,188.65H450M428.2,203.16H450V167.05H428.2ZM439.1,203.16V226.37M439.1,167.05V114.19M433.65,226.37H444.55M433.65,114.19H444.55" style="vector-effect: none; stroke-width: 2px; stroke: rgb(158, 202, 225); stroke-opacity: 1; fill: rgb(158, 202, 225); fill-opacity: 0.5;"/><g class="points"><path class="point" transform="translate(40.3,74.21)" d="M3,0A3,3 0 1,1 0,-3A3,3 0 0,1 3,0Z" style="opacity: 1; stroke-width: 1.5px; fill: rgb(158, 202, 225); fill-opacity: 1; stroke: rgb(8, 48, 107); stroke-opacity: 1;"/><path class="point" transform="translate(36.52,56.81)" d="M3,0A3,3 0 1,1 0,-3A3,3 0 0,1 3,0Z" style="opacity: 1; stroke-width: 1.5px; fill: rgb(158, 202, 225); fill-opacity: 1; stroke: rgb(8, 48, 107); stroke-opacity: 1;"/></g><g class="points"/><g class="points"><path class="point" transform="translate(305.6,143.84)" d="M3,0A3,3 0 1,1 0,-3A3,3 0 0,1 3,0Z" style="opacity: 1; stroke-width: 1.5px; fill: rgb(158, 202, 225); fill-opacity: 1; stroke: rgb(8, 48, 107); stroke-opacity: 1;"/></g><g class="points"><path class="point" transform="translate(439.1,73.57)" d="M3,0A3,3 0 1,1 0,-3A3,3 0 0,1 3,0Z" style="opacity: 1; stroke-width: 1.5px; fill: rgb(158, 202, 225); fill-opacity: 1; stroke: rgb(8, 48, 107); stroke-opacity: 1;"/></g></g><g class="trace boxes" style="opacity: 0.6;"><path class="box" d="M58.85,204.45H80.65M58.85,224.43H80.65V181.88H58.85ZM69.75,224.43V236.68M69.75,181.88V159.32M64.3,236.68H75.2M64.3,159.32H75.2" style="vector-effect: none; stroke-width: 2px; stroke: rgb(255, 127, 14); stroke-opacity: 1; fill: rgb(255, 127, 14); fill-opacity: 0.5;"/><path class="box" d="M192.35,212.18H214.15M192.35,223.63H214.15V180.59H192.35ZM203.25,223.63V250.22M203.25,180.59V127.72M197.8,250.22H208.7M197.8,127.72H208.7" style="vector-effect: none; stroke-width: 2px; stroke: rgb(255, 127, 14); stroke-opacity: 1; fill: rgb(255, 127, 14); fill-opacity: 0.5;"/><path class="box" d="M325.85,216.05H347.65M325.85,223.95H347.65V201.06H325.85ZM336.75,223.95V234.1M336.75,201.06V181.24M331.3,234.1H342.2M331.3,181.24H342.2" style="vector-effect: none; stroke-width: 2px; stroke: rgb(255, 127, 14); stroke-opacity: 1; fill: rgb(255, 127, 14); fill-opacity: 0.5;"/><path class="box" d="M459.35,206.7H481.15M459.35,224.43H481.15V183.81H459.35ZM470.25,224.43V245.06M470.25,183.81V129.01M464.8,245.06H475.7M464.8,129.01H475.7" style="vector-effect: none; stroke-width: 2px; stroke: rgb(255, 127, 14); stroke-opacity: 1; fill: rgb(255, 127, 14); fill-opacity: 0.5;"/><g class="points"><path class="point" transform="translate(71.45,88.4)" d="M3,0A3,3 0 1,1 0,-3A3,3 0 0,1 3,0Z" style="opacity: 1; stroke-width: 1.5px; fill: rgb(255, 127, 14); fill-opacity: 1; stroke: rgb(8, 48, 107); stroke-opacity: 1;"/><path class="point" transform="translate(67.67,72.28)" d="M3,0A3,3 0 1,1 0,-3A3,3 0 0,1 3,0Z" style="opacity: 1; stroke-width: 1.5px; fill: rgb(255, 127, 14); fill-opacity: 1; stroke: rgb(8, 48, 107); stroke-opacity: 1;"/></g><g class="points"><path class="point" transform="translate(205.79,109.03)" d="M3,0A3,3 0 1,1 0,-3A3,3 0 0,1 3,0Z" style="opacity: 1; stroke-width: 1.5px; fill: rgb(255, 127, 14); fill-opacity: 1; stroke: rgb(8, 48, 107); stroke-opacity: 1;"/><path class="point" transform="translate(200.48,40.69)" d="M3,0A3,3 0 1,1 0,-3A3,3 0 0,1 3,0Z" style="opacity: 1; stroke-width: 1.5px; fill: rgb(255, 127, 14); fill-opacity: 1; stroke: rgb(8, 48, 107); stroke-opacity: 1;"/><path class="point" transform="translate(202.44,14.9)" d="M3,0A3,3 0 1,1 0,-3A3,3 0 0,1 3,0Z" style="opacity: 1; stroke-width: 1.5px; fill: rgb(255, 127, 14); fill-opacity: 1; stroke: rgb(8, 48, 107); stroke-opacity: 1;"/></g><g class="points"><path class="point" transform="translate(336.75,135.46)" d="M3,0A3,3 0 1,1 0,-3A3,3 0 0,1 3,0Z" style="opacity: 1; stroke-width: 1.5px; fill: rgb(255, 127, 14); fill-opacity: 1; stroke: rgb(8, 48, 107); stroke-opacity: 1;"/></g><g class="points"><path class="point" transform="translate(470.13,121.28)" d="M3,0A3,3 0 1,1 0,-3A3,3 0 0,1 3,0Z" style="opacity: 1; stroke-width: 1.5px; fill: rgb(255, 127, 14); fill-opacity: 1; stroke: rgb(8, 48, 107); stroke-opacity: 1;"/><path class="point" transform="translate(471.2,31.02)" d="M3,0A3,3 0 1,1 0,-3A3,3 0 0,1 3,0Z" style="opacity: 1; stroke-width: 1.5px; fill: rgb(255, 127, 14); fill-opacity: 1; stroke: rgb(8, 48, 107); stroke-opacity: 1;"/></g></g><g class="trace boxes" style="opacity: 0.6;"><path class="box" d="M90,233.46H111.8M90,243.13H111.8V216.69H90ZM100.9,243.13V270.85M100.9,216.69V207.02M95.45,270.85H106.35M95.45,207.02H106.35" style="vector-effect: none; stroke-width: 2px; stroke: rgb(44, 160, 44); stroke-opacity: 1; fill: rgb(44, 160, 44); fill-opacity: 0.5;"/><path class="box" d="M223.5,227.65H245.3M223.5,242.97H245.3V216.21H223.5ZM234.4,242.97V283.1M234.4,216.21V192.2M228.95,283.1H239.85M228.95,192.2H239.85" style="vector-effect: none; stroke-width: 2px; stroke: rgb(44, 160, 44); stroke-opacity: 1; fill: rgb(44, 160, 44); fill-opacity: 0.5;"/><path class="box" d="M357,230.88H378.8M357,238.29H378.8V215.24H357ZM367.9,238.29V255.38M367.9,215.24V194.77M362.45,255.38H373.35M362.45,194.77H373.35" style="vector-effect: none; stroke-width: 2px; stroke: rgb(44, 160, 44); stroke-opacity: 1; fill: rgb(44, 160, 44); fill-opacity: 0.5;"/><path class="box" d="M490.5,237.65H512.3M490.5,251.51H512.3V206.38H490.5ZM501.4,251.51V281.81M501.4,206.38V167.7M495.95,281.81H506.85M495.95,167.7H506.85" style="vector-effect: none; stroke-width: 2px; stroke: rgb(44, 160, 44); stroke-opacity: 1; fill: rgb(44, 160, 44); fill-opacity: 0.5;"/><g class="points"><path class="point" transform="translate(102.6,119.34)" d="M3,0A3,3 0 1,1 0,-3A3,3 0 0,1 3,0Z" style="opacity: 1; stroke-width: 1.5px; fill: rgb(44, 160, 44); fill-opacity: 1; stroke: rgb(8, 48, 107); stroke-opacity: 1;"/><path class="point" transform="translate(98.82,112.9)" d="M3,0A3,3 0 1,1 0,-3A3,3 0 0,1 3,0Z" style="opacity: 1; stroke-width: 1.5px; fill: rgb(44, 160, 44); fill-opacity: 1; stroke: rgb(8, 48, 107); stroke-opacity: 1;"/></g><g class="points"><path class="point" transform="translate(236.94,169.63)" d="M3,0A3,3 0 1,1 0,-3A3,3 0 0,1 3,0Z" style="opacity: 1; stroke-width: 1.5px; fill: rgb(44, 160, 44); fill-opacity: 1; stroke: rgb(8, 48, 107); stroke-opacity: 1;"/><path class="point" transform="translate(231.63,153.51)" d="M3,0A3,3 0 1,1 0,-3A3,3 0 0,1 3,0Z" style="opacity: 1; stroke-width: 1.5px; fill: rgb(44, 160, 44); fill-opacity: 1; stroke: rgb(8, 48, 107); stroke-opacity: 1;"/><path class="point" transform="translate(233.59,109.03)" d="M3,0A3,3 0 1,1 0,-3A3,3 0 0,1 3,0Z" style="opacity: 1; stroke-width: 1.5px; fill: rgb(44, 160, 44); fill-opacity: 1; stroke: rgb(8, 48, 107); stroke-opacity: 1;"/></g><g class="points"/><g class="points"/></g></g></g><g class="overplot"/><path class="xlines-above crisp" d="M0,0" style="fill: none;"/><path class="ylines-above crisp" d="M0,0" style="fill: none;"/><g class="overlines-above"/><g class="xaxislayer-above"><g class="xtick"><text text-anchor="end" x="0" y="415" transform="translate(149.75,0) rotate(-45,0,407)" style="font-family: 'Open Sans', verdana, arial, sans-serif; font-size: 16px; fill: rgb(42, 63, 95); fill-opacity: 1; white-space: pre; opacity: 1;">Intern</text></g><g class="xtick"><text text-anchor="end" x="0" y="415" transform="translate(283.25,0) rotate(-45,0,407)" style="font-family: 'Open Sans', verdana, arial, sans-serif; font-size: 16px; fill: rgb(42, 63, 95); fill-opacity: 1; white-space: pre; opacity: 1;">Junior</text></g><g class="xtick"><text text-anchor="end" x="0" y="415" transform="translate(416.75,0) rotate(-45,0,407)" style="font-family: 'Open Sans', verdana, arial, sans-serif; font-size: 16px; fill: rgb(42, 63, 95); fill-opacity: 1; white-space: pre; opacity: 1;">Middle</text></g><g class="xtick"><text text-anchor="end" x="0" y="415" transform="translate(550.25,0) rotate(-45,0,407)" style="font-family: 'Open Sans', verdana, arial, sans-serif; font-size: 16px; fill: rgb(42, 63, 95); fill-opacity: 1; white-space: pre; opacity: 1;">Senior</text></g></g><g class="yaxislayer-above"><g class="ytick"><text text-anchor="end" x="79" y="5.6" transform="translate(0,343.13)" style="font-family: 'Open Sans', verdana, arial, sans-serif; font-size: 16px; fill: rgb(42, 63, 95); fill-opacity: 1; white-space: pre; opacity: 1;">100</text></g><g class="ytick"><text text-anchor="end" x="79" y="5.6" style="font-family: 'Open Sans', verdana, arial, sans-serif; font-size: 16px; fill: rgb(42, 63, 95); fill-opacity: 1; white-space: pre; opacity: 1;" transform="translate(0,278.65999999999997)">200</text></g><g class="ytick"><text text-anchor="end" x="79" y="5.6" style="font-family: 'Open Sans', verdana, arial, sans-serif; font-size: 16px; fill: rgb(42, 63, 95); fill-opacity: 1; white-space: pre; opacity: 1;" transform="translate(0,214.19)">300</text></g><g class="ytick"><text text-anchor="end" x="79" y="5.6" style="font-family: 'Open Sans', verdana, arial, sans-serif; font-size: 16px; fill: rgb(42, 63, 95); fill-opacity: 1; white-space: pre; opacity: 1;" transform="translate(0,149.71)">400</text></g></g><g class="overaxes-above"/></g></g><g class="polarlayer"/><g class="smithlayer"/><g class="ternarylayer"/><g class="geolayer"/><g class="funnelarealayer"/><g class="pielayer"/><g class="iciclelayer"/><g class="treemaplayer"/><g class="sunburstlayer"/><g class="glimages"/><defs id="topdefs-193bcf"><g class="clips"/><clipPath id="legend193bcf"><rect width="304" height="82" x="0" y="0"/></clipPath></defs><g class="layer-above"><g class="imagelayer"/><g class="shapelayer"/></g><g class="infolayer"><g class="legend" pointer-events="all" transform="translate(198,405.40000000000003)"><rect class="bg" shape-rendering="crispEdges" width="304" height="82" x="0" y="0" style="stroke: rgb(68, 68, 68); stroke-opacity: 1; fill: rgb(0, 0, 0); fill-opacity: 0; stroke-width: 0px;"/><g class="scrollbox" transform="" clip-path="url(#legend193bcf)"><g class="groups"><g class="traces" transform="translate(0,16.9)" style="opacity: 1;"><text class="legendtext" text-anchor="start" x="40" y="6.24" style="font-family: 'Open Sans', verdana, arial, sans-serif; font-size: 16px; fill: rgb(42, 63, 95); fill-opacity: 1; white-space: pre;">No AI</text><g class="layers" style="opacity: 0.6;"><g class="legendfill"/><g class="legendlines"/><g class="legendsymbols"><g class="legendpoints"><path class="legendbox" d="M6,6H-6V-6H6Z" transform="translate(20,0)" style="stroke-width: 2px; fill: rgb(158, 202, 225); fill-opacity: 0.5; stroke: rgb(158, 202, 225); stroke-opacity: 1;"/></g></g></g><rect class="legendtoggle" x="0" y="-11.9" width="87.484375" height="23.8" style="fill: rgb(0, 0, 0); fill-opacity: 0;"/></g><g class="traces" transform="translate(0,40.7)" style="opacity: 1;"><text class="legendtext" text-anchor="start" x="40" y="6.24" style="font-family: 'Open Sans', verdana, arial, sans-serif; font-size: 16px; fill: rgb(42, 63, 95); fill-opacity: 1; white-space: pre;">Physician Assistant</text><g class="layers" style="opacity: 0.6;"><g class="legendfill"/><g class="legendlines"/><g class="legendsymbols"><g class="legendpoints"><path class="legendbox" d="M6,6H-6V-6H6Z" transform="translate(20,0)" style="stroke-width: 2px; fill: rgb(255, 127, 14); fill-opacity: 0.5; stroke: rgb(255, 127, 14); stroke-opacity: 1;"/></g></g></g><rect class="legendtoggle" x="0" y="-11.9" width="195.234375" height="23.8" style="fill: rgb(0, 0, 0); fill-opacity: 0;"/></g><g class="traces" transform="translate(0,64.5)" style="opacity: 1;"><text class="legendtext" text-anchor="start" x="40" y="6.24" style="font-family: 'Open Sans', verdana, arial, sans-serif; font-size: 16px; fill: rgb(42, 63, 95); fill-opacity: 1; white-space: pre;">Personalized Physician Assistant</text><g class="layers" style="opacity: 0.6;"><g class="legendfill"/><g class="legendlines"/><g class="legendsymbols"><g class="legendpoints"><path class="legendbox" d="M6,6H-6V-6H6Z" transform="translate(20,0)" style="stroke-width: 2px; fill: rgb(44, 160, 44); fill-opacity: 0.5; stroke: rgb(44, 160, 44); stroke-opacity: 1;"/></g></g></g><rect class="legendtoggle" x="0" y="-11.9" width="301.34375" height="23.8" style="fill: rgb(0, 0, 0); fill-opacity: 0;"/></g></g></g><rect class="scrollbar" rx="20" ry="3" width="0" height="0" x="0" y="0" style="fill: rgb(128, 139, 164); fill-opacity: 1;"/></g><g class="g-gtitle"><text class="gtitle" x="35" y="50" text-anchor="start" dy="0em" style="font-family: 'Open Sans', verdana, arial, sans-serif; font-size: 24px; fill: rgb(42, 63, 95); opacity: 1; font-weight: normal; white-space: pre;">Time on Task by Category Level and Assistance Type</text></g><g class="g-xtitle"><text class="xtitle" x="350" y="480.2138671875" text-anchor="middle" style="font-family: 'Open Sans', verdana, arial, sans-serif; font-size: 20px; fill: rgb(42, 63, 95); opacity: 1; font-weight: normal; white-space: pre;">Category Level</text></g><g class="g-ytitle" transform="translate(0.015625,0)"><text class="ytitle" transform="rotate(-90,19.984375,249)" x="19.984375" y="249" text-anchor="middle" style="font-family: 'Open Sans', verdana, arial, sans-serif; font-size: 20px; fill: rgb(42, 63, 95); opacity: 1; font-weight: normal; white-space: pre;">Time on Task (seconds)</text></g></g></svg>